<svg xmlns="http://www.w3.org/2000/svg" viewBox="0 0 146.69 208.72"><defs><style>.cls-1{fill:#00253c;}.cls-1,.cls-2,.cls-3{fill-rule:evenodd;}.cls-2{fill:#fff;}.cls-3{fill:#7eadd2;}</style></defs><g id="Capa_2" data-name="Capa 2"><g id="Capa_1-2" data-name="Capa 1"><polygon class="cls-1" points="73.34 12.32 8.66 104.36 73.34 196.39 138.03 104.36 73.34 12.32"/><polygon class="cls-1" points="73.34 0 146.69 104.36 73.34 208.72 0 104.36 73.34 0"/><path class="cls-1" d="M73.05,111.76l-.77,1.3H97l1.14-1.3ZM21.94,106l-1.15,1.64,52.55,74.78,52.56-74.78L124.74,106l-51.4,73.14Zm52-40.28L86.15,82.88h22.52l-1-1.11H87.51L73.91,62.43H72.77L43.31,104.36,44.46,106,72.77,65.72Z"/><path class="cls-2" d="M72.39,117.47l-.77,1.31H96.38l1.14-1.31Zm-50.27-7.53L21,111.58l52.56,74.78,52.55-74.78-1.15-1.64-51.4,73.14Zm52-40.29L85.81,86.13h22.52l-1.41-1.79H86.71l-12.62-18-.58-.81-.56.81L43.48,108.3l1.16,1.64L73,69.65l.55-.83Z"/><polygon class="cls-3" points="73.91 62.43 87.51 81.77 110.03 81.77 73.34 29.58 20.79 104.36 73.34 179.14 125.9 104.36 120.7 96.96 120.62 96.96 79.83 96.96 69.15 114.5 96.22 114.5 73.34 147.1 43.31 104.36 72.78 62.43 73.35 61.61 73.91 62.43"/><polygon class="cls-2" points="79.74 58.4 91.19 74.69 96.38 74.69 73.34 41.9 29.45 104.36 73.34 166.81 117.24 104.36 117.02 104.05 83.81 104.05 81.76 107.42 109.85 107.42 73.35 159.43 34.65 104.36 66.97 58.36 73.44 49.13 79.74 58.4"/></g></g></svg>